<?xml version="1.0" encoding="utf-8"?><!-- Uploaded to: SVG Repo, www.svgrepo.com, Generator: SVG Repo Mixer Tools -->
<svg fill="#000000" width="800px" height="800px" viewBox="0 0 24 24" id="diary" data-name="Flat Color" xmlns="http://www.w3.org/2000/svg" class="icon flat-color"><rect id="primary" x="2" y="2" width="18" height="20" rx="2" style="fill: rgb(0, 0, 0);"></rect><path id="secondary" d="M4,2H6V22H4a2,2,0,0,1-2-2V4A2,2,0,0,1,4,2ZM18.91,5.29,12.29,11.9a1.05,1.05,0,0,0-.29.71V14a1,1,0,0,0,1,1h1.39a1.05,1.05,0,0,0,.71-.29l6.61-6.62a1,1,0,0,0,0-1.4l-1.4-1.4A1,1,0,0,0,18.91,5.29Z" style="fill: rgb(44, 169, 188);"></path></svg>